<svg width="28" height="28" viewBox="0 0 28 28" fill="none" xmlns="http://www.w3.org/2000/svg">
<path d="M9.51172 14C9.52051 14.3076 9.63477 14.5889 9.88086 14.8174L16.7187 21.4971C16.9121 21.6904 17.1582 21.7959 17.4482 21.7959C18.0283 21.7959 18.4941 21.3389 18.4941 20.7588C18.4941 20.4775 18.3799 20.2051 18.1777 20.0029L12.0166 14.0088L18.1777 7.99707C18.3711 7.79492 18.4941 7.53125 18.4941 7.24121C18.4941 6.66113 18.0283 6.2041 17.4482 6.2041C17.1582 6.2041 16.9121 6.30957 16.7187 6.50293L9.88086 13.1914C9.63477 13.4287 9.51172 13.6924 9.51172 14Z" fill="white"/>
</svg>
